<?xml version="1.0" encoding="utf-8"?>
<!-- Generator: Adobe Illustrator 18.0.0, SVG Export Plug-In . SVG Version: 6.00 Build 0)  -->
<!DOCTYPE svg PUBLIC "-//W3C//DTD SVG 1.1//EN" "http://www.w3.org/Graphics/SVG/1.1/DTD/svg11.dtd">
<svg version="1.1" id="Calque_1" xmlns="http://www.w3.org/2000/svg" xmlns:xlink="http://www.w3.org/1999/xlink" x="0px" y="0px"
	 viewBox="0 0 841.9 595.3" enable-background="new 0 0 841.9 595.3" xml:space="preserve">
<path fill="#FFFFFF" d="M622.5,341.1c-0.2-0.7-0.5-1.3-0.8-1.9c-0.2-0.4-0.5-0.7-0.7-1c-0.4-0.5-0.7-1-1.2-1.4
	c-0.3-0.3-0.7-0.6-1-0.8c-0.3-0.3-0.6-0.6-1-0.8c-0.2-0.1-0.4-0.1-0.5-0.2s-0.3-0.2-0.4-0.3L385.2,218.8V119c0-4.1-2.1-8-5.6-10.1
	c-3.5-2.2-7.9-2.4-11.6-0.5l-142.9,71.4c-4,2-6.6,6.1-6.6,10.6v107.2v59.5c0,1.1,0.2,2.1,0.4,3.2c0.1,0.3,0.3,0.6,0.4,1
	c0.2,0.7,0.5,1.3,0.8,1.9c0.2,0.4,0.5,0.7,0.7,1c0.4,0.5,0.7,1,1.2,1.4c0.3,0.3,0.7,0.6,1,0.8c0.3,0.3,0.6,0.6,1,0.8
	c0.2,0.1,0.3,0.1,0.5,0.2c0.2,0.1,0.3,0.2,0.4,0.3L463,486.8c0.5,0.2,0.9,0.3,1.4,0.5c0.3,0.1,0.6,0.3,0.9,0.3c1,0.3,2,0.4,3,0.4
	s2-0.2,3-0.4c0.3-0.1,0.6-0.2,0.9-0.3c0.5-0.2,1-0.3,1.4-0.5l142.9-71.4c4-2,6.6-6.1,6.6-10.6v-59.5c0-1.1-0.2-2.1-0.4-3.2
	C622.8,341.8,622.6,341.5,622.5,341.1z M373.3,239.5l21,10.5l-116.2,58.1l-21-10.5L373.3,239.5z M242.4,197.8l119.1-59.5v80.5
	l-119.1,59.5V197.8z M456.7,457L242.4,349.8v-11.9v-21l214.3,107.2V457z M468.6,403.4l-163.9-81.9l116.2-58.1l163.9,81.9
	L468.6,403.4z M599.5,397.4l-119,59.6v-32.9l119.1-59.5L599.5,397.4L599.5,397.4z"/>
</svg>
