<?xml version="1.0" encoding="UTF-8" standalone="no"?>
<svg width="80px" height="31px" viewBox="0 0 80 31" version="1.1" xmlns="http://www.w3.org/2000/svg" xmlns:xlink="http://www.w3.org/1999/xlink" xmlns:sketch="http://www.bohemiancoding.com/sketch/ns">
    <!-- Generator: Sketch 3.2.1 (9971) - http://www.bohemiancoding.com/sketch -->
    <title>cv-logo-large-dark</title>
    <desc>Created with Sketch.</desc>
    <defs></defs>
    <g id="Page-1" stroke="none" stroke-width="1" fill="none" fill-rule="evenodd" sketch:type="MSPage">
        <g id="cv-logo-large-dark" sketch:type="MSLayerGroup" fill="#4A4A4A">
            <g id="home" sketch:type="MSShapeGroup">
                <g id="Home---je-suis---descktop-HD">
                    <g id="cv-logo-large-dark">
                        <g id="valley" transform="translate(16.504399, 14.725146)">
                            <path d="M3.11356305,0.882900585 L6.86211144,10.3223392 L10.663173,0.882900585 L12.901129,0.882900585 L6.81779179,15.5272982 L0.87486217,0.882900585 L3.11356305,0.882900585 L3.11356305,0.882900585 Z" id="letter-v"></path>
                            <path d="M20.6622815,11.1962573 L14.8593871,11.1962573 L13.3495396,14.5044211 L11.1458475,14.5044211 L17.8526393,0.0273216374 L24.3221906,14.5044211 L22.0838622,14.5044211 L20.6622815,11.1962573 L20.6622815,11.1962573 Z M19.8284018,9.26390643 L17.8180029,4.63270175 L15.7107713,9.26390643 L19.8284018,9.26390643 L19.8284018,9.26390643 Z" id="letter-a"></path>
                            <path d="M28.5120733,0.882900585 L28.5120733,12.5724444 L32.4974897,12.5724444 L32.4974897,14.5044211 L26.4666657,14.5044211 L26.4666657,0.882900585 L28.5120733,0.882900585 L28.5120733,0.882900585 Z" id="letter-l"></path>
                            <path d="M36.9328065,12.5724444 L40.9182229,12.5724444 L40.9182229,14.5044211 L34.8873988,14.5044211 L34.8873988,0.882900585 L36.9328065,0.882900585 L36.9328065,12.5724444 L36.9328065,12.5724444 Z" id="letter-l-2"></path>
                            <path d="M50.7869795,2.81487719 L45.3531672,2.81487719 L45.3531672,6.08748538 L50.6290674,6.08748538 L50.6290674,8.01983626 L45.3531672,8.01983626 L45.3531672,12.5720702 L50.7869795,12.5720702 L50.7869795,14.5040468 L43.3073871,14.5040468 L43.3073871,0.882526316 L50.7869795,0.882526316 L50.7869795,2.81487719 L50.7869795,2.81487719 Z" id="letter-e"></path>
                            <path d="M56.5541202,8.62016374 L52.1299765,0.882900585 L54.4826422,0.882900585 L57.5816657,6.32626901 L60.6896276,0.882900585 L63.0422933,0.882900585 L58.6002727,8.62016374 L58.6002727,14.5040468 L56.5548651,14.5040468 L56.5541202,8.62016374 L56.5541202,8.62016374 Z" id="letter-y"></path>
                        </g>
                        <g id="creative" transform="translate(16.504399, 0.000000)">
                            <path d="M8.60435777,2.10783626 L8.60435777,3.86540351 C7.74924927,3.14643275 6.86471848,2.7871345 5.9507654,2.7871345 C4.94333138,2.7871345 4.09492669,3.15054971 3.40480645,3.87775439 C2.71096188,4.60084211 2.36348094,5.48561404 2.36348094,6.53169591 C2.36348094,7.56505263 2.71058944,8.43709942 3.40480645,9.14746199 C4.09865103,9.85782456 4.94966276,10.2130058 5.95672434,10.2130058 C6.4773871,10.2130058 6.91946628,10.1280468 7.28333431,9.95775439 C7.48668328,9.87279532 7.6971085,9.75789474 7.9149824,9.61305263 C8.1328563,9.4685848 8.36264809,9.29417544 8.60398534,9.08982456 L8.60398534,10.8859415 C7.75744282,11.3691228 6.86881525,11.610152 5.93773021,11.610152 C4.53700587,11.610152 3.3407478,11.1187368 2.35044575,10.1362807 C1.36424047,9.14521637 0.87113783,7.95017544 0.87113783,6.55078363 C0.87113783,5.29623392 1.28342229,4.17716959 2.10873607,3.19508772 C3.12473607,1.99181287 4.43868328,1.38961404 6.05132258,1.38961404 C6.9328739,1.39036257 7.78314076,1.62952047 8.60435777,2.10783626 L8.60435777,2.10783626 L8.60435777,2.10783626 Z" id="letter-c"></path>
                            <path d="M14.492912,7.2345731 L17.5278768,11.4327485 L15.7185924,11.4327485 L12.9186334,7.40074854 L12.6519707,7.40074854 L12.6519707,11.4327485 L11.1726628,11.4327485 L11.1726628,1.58236257 L12.9052258,1.58236257 C14.2001789,1.58236257 15.1357331,1.8271345 15.7111437,2.31630409 C16.3461437,2.86049123 16.6634575,3.57946199 16.6634575,4.47246784 C16.6634575,5.16973099 16.4645777,5.77005848 16.0668182,6.27157895 C15.6698035,6.77272515 15.145044,7.09384795 14.492912,7.2345731 L14.492912,7.2345731 L14.492912,7.2345731 Z M12.6519707,6.10502924 L13.12161,6.10502924 C14.5223343,6.10502924 15.2232551,5.56720468 15.2232551,4.49118129 C15.2232551,3.48327485 14.5417009,2.9791345 13.1789648,2.9791345 L12.6519707,2.9791345 L12.6519707,6.10502924 L12.6519707,6.10502924 Z" id="letter-r"></path>
                            <path d="M24.8778622,2.9791345 L20.9483109,2.9791345 L20.9483109,5.34638596 L24.7638974,5.34638596 L24.7638974,6.74353216 L20.9483109,6.74353216 L20.9483109,10.0356023 L24.8778622,10.0356023 L24.8778622,11.4327485 L19.4690029,11.4327485 L19.4690029,1.58236257 L24.8778622,1.58236257 L24.8778622,2.9791345 L24.8778622,2.9791345 Z" id="letter-e"></path>
                            <path d="M33.5149795,9.03967251 L29.318393,9.03967251 L28.2264164,11.432 L26.6327713,11.432 L31.4833519,0.962573099 L36.1622405,11.432 L34.5432698,11.432 L33.5149795,9.03967251 L33.5149795,9.03967251 Z M32.9120088,7.64290058 L31.4580264,4.29319298 L29.9343988,7.64290058 L32.9120088,7.64290058 L32.9120088,7.64290058 Z" id="letter-a"></path>
                            <path d="M40.0534311,2.9791345 L40.0534311,11.4327485 L38.5741232,11.4327485 L38.5741232,2.9791345 L36.3205249,2.9791345 L36.3205249,1.5819883 L42.3010704,1.5819883 L42.3010704,2.9791345 L40.0534311,2.9791345 L40.0534311,2.9791345 Z" id="letter-t"></path>
                            <path d="M45.4257918,1.58161404 L45.4257918,11.432 L43.9464839,11.432 L43.9464839,1.58161404 L45.4257918,1.58161404 L45.4257918,1.58161404 Z" id="letter-i"></path>
                            <path d="M48.6015367,1.58161404 L51.3124839,8.40790643 L54.0617918,1.58161404 L55.6807625,1.58161404 L51.2811994,12.1723041 L46.9833109,1.58161404 L48.6015367,1.58161404 L48.6015367,1.58161404 Z" id="letter-v"></path>
                            <path d="M62.6329883,2.9791345 L58.7030645,2.9791345 L58.7030645,5.34638596 L62.518651,5.34638596 L62.518651,6.74353216 L58.7030645,6.74353216 L58.7030645,10.0356023 L62.6329883,10.0356023 L62.6329883,11.4327485 L57.224129,11.4327485 L57.224129,1.58236257 L62.6329883,1.58236257 L62.6329883,2.9791345 L62.6329883,2.9791345 Z" id="letter-e-2"></path>
                        </g>
                        <path d="M13.5904897,0.697263158 C13.6534311,0.63625731 13.6649765,0.532210526 13.617305,0.461473684 C13.5755924,0.388116959 13.4862082,0.319251462 13.3886305,0.328608187 C13.3424487,0.332725146 13.2977566,0.339087719 13.2597683,0.364912281 C13.2567889,0.36528655 13.2556716,0.366783626 13.253437,0.366783626 C13.2031584,0.377263158 13.1580938,0.403087719 13.1256921,0.436397661 C13.0485982,0.480187135 13.0161965,0.578245614 13.0400323,0.653473684 C13.0579091,0.71148538 13.1081877,0.760888889 13.1718739,0.783345029 C12.9756012,0.891508772 12.818434,1.07939181 12.575607,1.05281871 C12.5290528,1.04795322 12.4824985,1.04009357 12.4351994,1.03111111 C12.4512141,1.00416374 12.4590352,0.974596491 12.4590352,0.943157895 C12.4590352,0.833871345 12.3566158,0.743672515 12.2355748,0.743672515 C12.1372522,0.743672515 12.0415367,0.75302924 11.9666774,0.815157895 C11.9417243,0.836865497 11.920868,0.865684211 11.9067155,0.896748538 C11.8538299,0.884023392 11.7987097,0.873918129 11.7439619,0.864561404 C11.7480587,0.861567251 11.7521554,0.859321637 11.7555073,0.856327485 C11.8452639,0.783719298 11.841912,0.645614035 11.7555073,0.573380117 C11.6191965,0.460350877 11.418827,0.423672515 11.2530938,0.498900585 C11.1663167,0.53819883 11.0948094,0.630269006 11.1026305,0.719345029 C11.1067273,0.781473684 11.1283284,0.839111111 11.1707859,0.887017544 C10.6799179,0.985076023 10.2292727,1.27775439 10.010654,1.68308772 C9.98085924,1.65688889 9.94249853,1.6374269 9.90041349,1.62769591 C9.89706158,1.62694737 9.89594428,1.62507602 9.89259238,1.62470175 C9.8709912,1.6157193 9.8490176,1.60636257 9.82518182,1.59812865 C9.76335777,1.56107602 9.6870088,1.54348538 9.61028739,1.57230409 C9.50898534,1.60748538 9.45237537,1.67073684 9.40433138,1.75419883 C9.34958358,1.85188304 9.37341935,1.97052632 9.48365982,2.02816374 C9.52909677,2.05136842 9.58421701,2.0588538 9.6356129,2.05061988 C9.63933724,2.14867836 9.71084457,2.24449123 9.8512522,2.24449123 L9.86205279,2.24449123 C9.85274194,2.3728655 9.84715543,2.50123977 9.82741642,2.62774269 C9.79315249,2.66966082 9.76298534,2.71307602 9.74324633,2.76472515 C9.7231349,2.81637427 9.71754839,2.86989474 9.7231349,2.92079532 C9.71084457,2.92640936 9.57378886,2.98704094 9.51159238,3.00538012 C9.3629912,3.04879532 9.18571261,3.11616374 9.03152493,3.11990643 C8.92314663,2.93876023 8.85722581,2.70633918 8.7618827,2.50423392 C8.74586804,2.46830409 8.7279912,2.40093567 8.70899707,2.40093567 L8.74624047,2.40093567 C8.94139589,2.40093567 9.04232551,2.1808655 8.90378006,2.05810526 C8.84754252,2.00795322 8.79130499,1.96416374 8.71532845,1.93983626 C8.65871848,1.92149708 8.59428739,1.92261988 8.53395308,1.92261988 C8.49224047,1.92261988 8.45239003,1.93197661 8.4203607,1.95218713 C8.25574487,1.75120468 8.05202346,1.58016374 7.80956891,1.48659649 C7.82074194,1.48060819 7.83079765,1.47312281 7.84159824,1.46376608 C7.85388856,1.45253801 7.86506158,1.43869006 7.874,1.42521637 C7.89411144,1.41623392 7.91273314,1.40500585 7.92576833,1.38816374 C7.96226686,1.35073684 7.99653079,1.3114386 8.00509677,1.2594152 C8.00733138,1.23995322 8.00956598,1.22760234 8.01217302,1.21412865 C8.04829912,1.14039766 8.04047801,1.05730994 7.96934311,0.992935673 C7.90118768,0.931181287 7.78126393,0.91097076 7.69821114,0.961122807 C7.66171261,0.983204678 7.62633138,1.00678363 7.59095015,1.03223392 C7.58871554,1.03223392 7.58685337,1.03373099 7.58424633,1.03597661 C7.57903226,1.03897076 7.57344575,1.04084211 7.5674868,1.04533333 C7.55668622,1.04870175 7.5455132,1.05281871 7.53843695,1.05506433 C7.45091496,1.08051462 7.36525513,1.1568655 7.37531085,1.2474386 C7.38089736,1.30582456 7.39728446,1.37244444 7.44979765,1.41436257 C7.38834604,1.41024561 7.32652199,1.41436257 7.26283578,1.41960234 C6.88369795,1.4611462 6.50158065,1.63031579 6.33175073,1.9514386 C6.19395015,2.20893567 6.21555132,2.48140351 6.24460117,2.75611696 C6.26061584,2.9065731 6.34106158,3.17492398 6.09190323,3.1517193 C5.84237243,3.12851462 5.63678886,2.82872515 5.43530205,2.71307602 C4.17088856,1.98774269 2.79995894,3.80294737 3.65953666,4.71578947 C3.63532845,4.76070175 3.61000293,4.80785965 3.58728446,4.85202339 C3.57834604,4.85202339 3.46140176,4.85090058 3.45358065,4.85090058 C3.41410264,4.85202339 3.2286305,4.8580117 3.2286305,4.86512281 L3.2286305,4.85988304 C3.2286305,4.82208187 3.32881525,4.78502924 3.3183871,4.7517193 C3.3545132,4.67761404 3.39361877,4.58666667 3.32732551,4.5282807 C3.24874194,4.45866667 3.14967449,4.45380117 3.06326979,4.51031579 C2.98841056,4.51218713 2.93068328,4.54287719 2.88934311,4.60650292 C2.83980938,4.68322807 2.86215543,4.79139181 2.93366276,4.85164912 C2.93924927,4.86587135 2.95042229,4.88009357 2.96196774,4.89319298 C2.98990029,4.93136842 3.02379179,4.9654269 3.05954545,4.99873684 L3.05954545,5.00135673 C3.05544868,5.00622222 3.05433138,5.01333333 3.04986217,5.01932164 C3.02528152,5.00846784 2.99772141,5.00322807 2.96718182,5.00322807 C2.94930499,5.00322807 2.92993842,5.00472515 2.91280645,5.00659649 C2.9023783,5.00509942 2.89232258,5.00322807 2.88301173,5.00322807 C2.83496774,5.00322807 2.78804106,5.01932164 2.75042522,5.04364912 C2.76755718,5.00322807 2.76830205,4.95906433 2.7556393,4.91789474 C2.76048094,4.89880702 2.76606745,4.9220117 2.76606745,4.90180117 C2.76606745,4.79326316 2.66402053,4.74498246 2.54186217,4.74498246 L2.45657478,4.74498246 C2.33590616,4.74498246 2.35378299,4.75134503 2.35378299,4.86025731 L2.35378299,4.89094737 C2.35378299,4.95157895 2.31914663,5.00360234 2.36793548,5.04701754 C2.39363343,5.07097076 2.38916422,5.09380117 2.4152346,5.11625731 C2.49307331,5.18549708 2.60368622,5.19260819 2.68897361,5.13534503 C2.67891789,5.15667836 2.66662757,5.17950877 2.66886217,5.20233918 C2.66886217,5.21843275 2.66662757,5.23302924 2.66662757,5.24725146 C2.66886217,5.25136842 2.65098534,5.2528655 2.65098534,5.25585965 C2.65321994,5.2697076 2.64465396,5.28392982 2.64465396,5.2962807 L2.64465396,5.29665497 C2.64465396,5.31012865 2.67184164,5.32509942 2.68078006,5.3385731 C2.69567742,5.37076023 2.73366569,5.39695906 2.75936364,5.42128655 C2.84576833,5.4980117 2.99287977,5.4980117 3.07891202,5.42128655 C3.10870674,5.39433918 3.12844575,5.36215205 3.13701173,5.32809357 C3.14557771,5.32023392 3.15265396,5.312 3.1574956,5.30376608 C3.19101466,5.31611696 3.22639589,5.32547368 3.26326686,5.32809357 C3.27555718,5.32809357 3.28784751,5.32809357 3.30013783,5.32509942 C3.17946921,5.49164912 3.03943402,5.64360234 2.86178299,5.7648655 C2.68003519,5.88725146 2.49456305,6.02049123 2.3385132,6.17506433 C2.33516129,6.1705731 2.33404399,6.16383626 2.33031965,6.15934503 C2.2837654,6.0957193 2.20741642,6.05080702 2.11952199,6.05492398 C2.0692434,6.05642105 2.02119941,6.06615205 1.97203812,6.07663158 C1.85732845,6.10320468 1.78768328,6.21548538 1.81561584,6.31653801 C1.80444282,6.37529825 1.81002933,6.43480702 1.83982405,6.48720468 C1.8327478,6.48720468 1.82716129,6.4857076 1.81971261,6.48720468 C1.76794428,6.49356725 1.71580352,6.49918129 1.67260117,6.52687719 C1.6685044,6.52874854 1.66440762,6.53249123 1.65993842,6.53623392 C1.57129912,6.56243275 1.50463343,6.63691228 1.50463343,6.72523977 C1.50463343,6.80945029 1.56496774,6.88205848 1.64951026,6.91125146 C1.66403519,6.9434386 1.67781525,6.97450292 1.69085044,7.0074386 C1.70053372,7.03326316 1.71617595,7.05796491 1.73405279,7.07705263 C1.71803812,7.1197193 1.7243695,7.16650292 1.7441085,7.20729825 C1.71058944,7.22376608 1.5973695,7.24098246 1.57241642,7.26194152 C1.50500587,7.31695906 1.43238123,7.38807018 1.40705572,7.46404678 C1.39104106,7.4180117 1.36795015,7.38357895 1.31059531,7.38357895 L1.2677654,7.38357895 C1.14635191,7.38357895 1.04467742,7.42100585 1.04467742,7.53066667 C1.04467742,7.63883041 1.14635191,7.67663158 1.2677654,7.67663158 L1.31022287,7.67663158 C1.39848974,7.67663158 1.47334897,7.72977778 1.50984751,7.66240936 C1.51096481,7.67775439 1.50984751,7.74138012 1.51096481,7.75672515 C1.51878592,7.8345731 1.57167155,7.93787135 1.65174487,7.96930994 C1.65695894,8.03181287 1.67669795,8.1062924 1.71207918,8.16430409 C1.72772141,8.22007018 1.75230205,8.27845614 1.78395894,8.32411696 C1.67632551,8.35592982 1.53629032,8.39410526 1.43014663,8.41768421 C0.92326393,8.53071345 0.291615836,8.68528655 0.120668622,9.1942924 C-0.0312844575,9.64566082 0.191058651,10.0502456 0.459211144,10.4114152 C0.623454545,10.6356023 0.604832845,10.8249825 0.604832845,11.0929591 C0.604832845,11.1296374 0.495337243,11.1767953 0.411912023,11.2370526 C0.0230909091,11.5226199 -0.00111730205,12.1132164 0.270387097,12.484117 C0.354184751,12.598269 0.477087977,12.7053099 0.600363636,12.7936374 C0.570196481,12.7988772 0.547478006,12.8048655 0.518800587,12.8112281 C0.401856305,12.8363041 0.338542522,12.9534503 0.368709677,13.0545029 C0.355674487,13.0545029 0.343756598,13.056 0.331466276,13.0586199 C0.257351906,13.071345 0.20856305,13.1181287 0.176906158,13.174269 C0.109868035,13.2083275 0.0674105572,13.2697076 0.0674105572,13.3438129 C0.0674105572,13.4489825 0.167967742,13.5481637 0.289381232,13.5432982 C0.321782991,13.542924 0.354184751,13.5373099 0.38286217,13.5301988 C0.464797654,13.552655 0.553064516,13.542924 0.617868035,13.4841637 C0.668891496,13.4396257 0.696824047,13.3651462 0.678202346,13.3007719 C0.68229912,13.2786901 0.68229912,13.2543626 0.678202346,13.2307836 C0.68416129,13.2386433 0.687513196,13.2472515 0.693844575,13.2547368 C0.773545455,13.366269 0.93443695,13.3831111 1.04318768,13.2947836 C1.00631672,13.3236023 1.04728446,13.2921637 1.05510557,13.2880468 C1.07372727,13.2749474 1.09458358,13.2596023 1.11469501,13.2476257 C1.13368915,13.2311579 1.15119355,13.3239766 1.16683578,13.3033918 C1.24802639,13.2659649 1.32958944,13.2401404 1.35007331,13.2401404 L1.3619912,13.2401404 C1.58619648,13.2401404 1.7604956,13.030924 1.88824047,12.9062924 C1.93367742,12.9227602 1.98283871,12.8845848 2.0308827,12.8984327 C2.32063636,12.987883 2.61746628,13.0219415 2.87146628,13.1787602 C2.95042229,13.2255439 3.02639883,13.2622222 3.09231965,13.3236023 C3.08263636,13.3340819 3.07332551,13.3359532 3.06513196,13.341193 C3.06289736,13.3426901 3.06178006,13.3393216 3.05991789,13.341193 C3.05582111,13.3426901 3.0502346,13.3445614 3.04315836,13.3494269 C3.0118739,13.3688889 2.97723754,13.3872281 2.94483578,13.4078129 C2.87519062,13.4478596 2.80293842,13.4871579 2.73254839,13.5268304 C2.38432258,13.7236959 2.05099413,13.9344094 1.88563343,14.2821053 C1.82567155,14.2297076 1.75230205,14.1904094 1.66664223,14.1776842 C1.54746334,14.1582222 1.42753959,14.2061287 1.39215836,14.3176608 C1.37912317,14.3625731 1.38731672,14.4130994 1.40891789,14.4568889 C1.3958827,14.4692398 1.38359238,14.4819649 1.37241935,14.4980585 C1.31506452,14.5867602 1.34411437,14.7237427 1.45212023,14.7709006 C1.54969795,14.8146901 1.6673871,14.8465029 1.77613783,14.8079532 C1.79624927,14.8008421 1.8152434,14.7918596 1.83460997,14.7825029 C1.90686217,15.0987602 2.1426129,15.4015439 2.3943783,15.5954152 C2.40778592,15.606269 2.42082111,15.6145029 2.43311144,15.6246082 C2.3966129,15.695345 2.37240469,15.7735673 2.35899707,15.8529123 C2.32882991,15.8431813 2.29829032,15.8398129 2.26812317,15.8398129 C2.15751026,15.8454269 2.05136657,15.8850994 1.96868622,15.949848 C1.90537243,16.0007485 1.8524868,16.0894503 1.86179765,16.1691696 C1.86626686,16.2193216 1.87408798,16.2604912 1.90537243,16.3054035 C1.93591202,16.3488187 1.96496188,16.3705263 2.01077126,16.4012164 C2.07892669,16.4457544 2.18320821,16.4596023 2.26290909,16.4375205 C2.28972434,16.4304094 2.31504985,16.4195556 2.33888563,16.4068304 C2.36570088,16.4015906 2.39177126,16.3944795 2.41597947,16.3806316 C2.45061584,16.4700819 2.49381818,16.5516725 2.54744868,16.626152 C2.57240176,16.659462 2.59884457,16.690152 2.62677713,16.7227135 C2.59102346,16.7803509 2.56830499,16.8507135 2.56644282,16.9319298 C2.56234604,16.9925614 2.56830499,17.0513216 2.5772434,17.1070877 C2.51206745,17.3110643 2.50238416,17.5307602 2.54409677,17.7216374 C2.54595894,17.7302456 2.54931085,17.7407251 2.55266276,17.7493333 C2.48190029,17.7575673 2.42864223,17.7912515 2.38469501,17.8443977 C2.37165982,17.8563743 2.35787977,17.869848 2.34856891,17.8855673 C2.28972434,17.9735205 2.31877419,18.1108772 2.42864223,18.1580351 C2.44875367,18.1677661 2.46700293,18.1733801 2.48860411,18.1782456 C2.52584751,18.2059415 2.5761261,18.2231579 2.62491496,18.2231579 C2.69530499,18.2231579 2.76718475,18.1872281 2.81113196,18.1344561 C3.09902346,18.363883 3.55004106,18.4368655 3.91018475,18.3156023 C4.18094428,18.2254035 4.40589443,18.0629708 4.57125513,17.8597427 C4.56678592,17.8881871 4.56827566,17.9166316 4.57944868,17.9476959 C4.66995015,18.1980819 4.88000293,18.4050526 5.18800587,18.4297544 C5.27217595,18.4372398 5.35113196,18.4267602 5.42450147,18.4095439 C5.43120528,18.4162807 5.43679179,18.4237661 5.4423783,18.4297544 C5.44535777,18.4331228 5.44870968,18.4342456 5.45094428,18.4372398 C5.36677419,18.4683041 5.30085337,18.5472749 5.30718475,18.6311111 C5.31277126,18.738152 5.38204399,18.8290994 5.48856012,18.8788772 C5.62487097,18.9469942 5.78352786,18.8762573 5.81816422,18.7467602 C5.81965396,18.7306667 5.82524047,18.7153216 5.83380645,18.7003509 C5.83380645,18.6981053 5.83492375,18.6947368 5.83604106,18.6928655 C5.86956012,18.6352281 5.87440176,18.5701053 5.8442346,18.5105965 C6.04609384,18.6195088 6.26061584,18.7067135 6.48966276,18.7497544 C7.01404985,18.8466901 7.60547507,18.6460819 8.06394135,18.9204211 C8.48367449,19.1711813 9.05126393,19.1367485 9.53580059,19.1977544 C10.0940792,19.2662456 10.6519853,19.3201404 11.2169677,19.3235088 C11.2303754,19.3235088 11.2434106,19.3220117 11.2564457,19.3193918 C11.2936891,19.3354854 11.3316774,19.3500819 11.3715279,19.3661754 C12.0523372,19.6457544 12.5175073,19.8729357 13.1294164,20.2704094 C13.2266217,20.3329123 13.4266188,20.5372632 13.5338798,20.6087485 C13.5357419,20.672 13.5372317,20.7348772 13.5387214,20.7970058 C13.5364868,21.4654503 13.5994282,22.8483743 13.5960762,23.6564211 C13.5938416,24.0482807 13.5733578,24.428538 13.5316452,24.8087953 C13.5219619,24.8480936 13.5152581,24.8866433 13.5078094,24.9240702 C13.4627449,25.1299181 13.4050176,25.3410058 13.3253167,25.5476023 C13.3063226,25.5453567 13.2858387,25.5487251 13.2642375,25.5569591 C12.6553079,25.778152 12.0128592,25.8361637 11.3946188,26.0143158 C11.1454604,26.0865497 10.8389472,26.1542924 10.6333636,26.3268304 C10.3652111,26.5521404 10.1663314,26.8335906 9.83970674,26.9836725 C9.83449267,26.9874152 9.83039589,26.9896608 9.82555425,26.9945263 C9.64417889,27.0102456 9.46131378,27.0285848 9.27956598,27.0499181 C9.23934311,27.0559064 9.21215543,27.0723743 9.19465103,27.0981988 C9.06392669,27.1064327 8.93394721,27.1154152 8.80173314,27.1187836 C8.69819648,27.1229006 8.65424927,27.2198363 8.66877419,27.2995556 L14.8489443,27.2995556 L14.8489443,17.4147368 L14.8489443,15.8420585 L14.8489443,14.3831579 L14.8489443,13.5152281 L14.8489443,13.307883 L14.8489443,11.8055673 L14.8489443,1.09548538 C14.6001584,0.846222222 13.9461642,0.705497076 13.5904897,0.697263158 L13.5904897,0.697263158 L13.5904897,0.697263158 Z M8.21924633,18.521076 C7.78126393,18.2695673 7.33061877,18.426386 6.85092375,18.3882105 C6.66545161,18.3732398 6.48966276,18.3316959 6.32653666,18.2676959 C6.3291437,18.2635789 6.33063343,18.2590877 6.33175073,18.2549708 C6.33770968,18.2508538 6.34627566,18.2467368 6.35335191,18.2392515 C6.39282991,18.2029474 6.41480352,18.1542924 6.41703812,18.1037661 C6.43491496,18.0599766 6.44608798,18.0135673 6.45428152,17.9694035 C6.46992375,17.9634152 6.48444868,17.9578012 6.49897361,17.9503158 C6.65092669,17.8893099 6.82112903,17.7901287 6.99431085,17.7190175 C6.9641437,17.6853333 6.93360411,17.6497778 6.90567155,17.6130994 C6.79617595,17.4686316 6.80958358,17.2631579 6.95148094,17.1351579 C6.98127566,17.1531228 7.00920821,17.1707135 7.03900293,17.1849357 C7.26730499,17.3009591 7.50417302,17.3683275 7.74625513,17.4147368 C7.8192522,17.4944561 7.91608504,17.5535906 8.02483578,17.5917661 C8.05053372,17.6119766 8.07772141,17.6269474 8.10639883,17.6430409 C8.21254252,17.6456608 8.31831378,17.6553918 8.42259531,17.6767251 C8.67771261,17.7291228 8.89037243,17.8821988 9.10489443,18.0259181 C9.00098534,18.1254737 8.93841642,18.2661988 8.95294135,18.4218947 C8.96672141,18.5570058 9.02370381,18.6662924 9.10824633,18.746386 C8.79502933,18.7186901 8.48851613,18.6775205 8.21924633,18.521076 L8.21924633,18.521076 L8.21924633,18.521076 Z M12.7383607,26.4877661 C12.0046657,26.6561871 11.2728328,26.820117 10.532434,26.9402573 C10.4944457,26.9417544 10.4549677,26.9469942 10.4154897,26.9488655 C10.6899736,26.7220585 10.9395044,26.4698012 11.3082141,26.3418012 C11.9111848,26.1325848 12.5554956,26.0790643 13.1688944,25.8930526 C13.0549296,26.1123743 12.9152669,26.313731 12.7383607,26.4877661 L12.7383607,26.4877661 L12.7383607,26.4877661 Z M9.89855132,18.831345 C10.0680088,18.7456374 10.1555308,18.5918129 10.1819736,18.4155322 C10.1912845,18.3563977 10.1964985,18.2927719 10.2009677,18.2321404 C10.2400733,18.2355088 10.2799238,18.2332632 10.3220088,18.2298947 C10.3711701,18.224655 10.4192141,18.2152982 10.4691202,18.2029474 C10.6043138,18.3395556 10.7268446,18.482152 10.8288915,18.6445848 C10.885129,18.7355322 10.941739,18.825731 11.0065425,18.9118129 C10.6344809,18.9005848 10.2661437,18.8698947 9.89855132,18.831345 L9.89855132,18.831345 L9.89855132,18.831345 Z M13.5167478,19.4807018 L13.5167478,19.6712047 C13.5115337,19.6678363 13.5044575,19.6644678 13.4977537,19.6592281 C12.9577243,19.3493333 12.3245865,19.2071111 11.7342786,18.9836725 C11.6322317,18.930152 11.5383783,18.8698947 11.4743196,18.8002807 C11.3093314,18.6146433 11.2013255,18.3956959 11.0542141,18.201076 C10.9931349,18.1179883 10.922,18.0408889 10.8486305,17.9649123 C10.8776804,17.9282339 10.9123167,17.8904327 10.9447185,17.8488889 C11.0218123,17.8938012 11.1074721,17.9278596 11.2031877,17.9469474 C11.3357742,17.9735205 11.4832581,17.9592982 11.6191965,17.9121404 C11.6173343,17.9244912 11.6150997,17.9383392 11.6150997,17.9506901 C11.6150997,17.9791345 11.6210587,18.2557193 11.6340938,18.2815439 C11.6035543,18.2706901 11.5730147,18.5124678 11.534654,18.5124678 L11.6784135,18.5124678 C11.4147302,18.5124678 11.3916393,18.6790175 11.6091408,18.7243041 C11.7562522,18.6868772 11.8065308,18.5704795 11.7610938,18.4537076 C11.793868,18.4671813 11.8277595,18.5128421 11.8650029,18.5128421 L11.9368827,18.5128421 C12.0731935,18.5128421 12.1867859,18.2426199 12.1867859,18.1157427 C12.1867859,17.9933567 12.0731935,17.8050994 11.9391173,17.8032281 C12.082132,17.6613801 12.1458182,17.4278363 12.0325982,17.2246082 C12.0199355,17.2002807 11.9763607,17.1265497 11.9290616,17.0644211 C11.9331584,17.029614 11.9413519,16.9839532 11.957739,16.9585029 C12.0069003,17.0116491 12.0631378,17.0516959 12.1223548,17.0891228 C12.316393,17.2047719 12.4996305,17.2088889 12.6515836,17.1471345 C12.9890088,17.3230409 13.3130264,17.5169123 13.5174927,17.6714854 C13.51861,17.6744795 13.5208446,17.6756023 13.5227067,17.6774737 C13.4281085,18.2785497 13.4322053,18.8796257 13.5167478,19.4807018 L13.5167478,19.4807018 L13.5167478,19.4807018 Z" id="tree"></path>
                    </g>
                </g>
            </g>
        </g>
    </g>
</svg>