<?xml version="1.0" encoding="utf-8"?>
<!-- Generator: Adobe Illustrator 18.0.0, SVG Export Plug-In . SVG Version: 6.00 Build 0)  -->
<!DOCTYPE svg PUBLIC "-//W3C//DTD SVG 1.1//EN" "http://www.w3.org/Graphics/SVG/1.1/DTD/svg11.dtd">
<svg version="1.1" id="Calque_1" xmlns="http://www.w3.org/2000/svg" xmlns:xlink="http://www.w3.org/1999/xlink" x="0px" y="0px"
	 viewBox="0 0 841.9 595.3" enable-background="new 0 0 841.9 595.3" xml:space="preserve">
<g>
	<path fill="#D01326" d="M-407.3,318.6c15.8,0,29.2-10.3,34.3-24.5h47.4c2,11.4,6.3,22.1,12.6,31.2l-33.6,33.6
		c-13.4-6.3-30-3.9-41.1,7.1c-14.2,14.2-14.2,37.1,0,51.3c14.2,14.2,37.1,14.2,51.3,0c11.1-11.1,13.4-28,7.1-41.5l33.6-33.6
		c9.1,6.7,20.1,11.1,31.6,13v47.4c-14.2,4.7-24.5,18.6-24.5,34.3c0,20.1,16.2,36.3,36.3,36.3s36.3-16.2,36.3-36.3
		c0-15.8-9.9-29.2-24.1-34v-47.4c11.4-2,22.1-6.3,31.2-13l33.6,33.6c-6.7,13.4-4.3,30.4,7.1,41.5c14.2,14.2,37.1,14.2,51.3,0
		s14.2-37.1,0-51.3c-11.1-11.1-27.6-13.4-41.1-7.1l-33.6-33.6c6.7-9.1,11.1-19.7,13-31.2h47.4c4.7,14.2,18.6,24.5,34.3,24.5
		c20.1,0,36.3-16.2,36.3-36.3s-16.2-36.3-36.3-36.3c-15.8,0-29.2,9.9-34,24.1H-178c-2-11.4-6.3-22.1-13-31.2l33.6-33.6
		c13.4,6.7,30.4,4.3,41.5-7.1c14.2-14.2,14.2-37.1,0-51.3c-14.2-14.2-37.1-14.2-51.3,0c-11.1,11.1-13.4,27.6-7.1,41.1l-33.6,33.6
		c-9.1-6.3-19.3-11.1-30.8-12.6v-47.4c13.8-5.1,24.1-18.6,24.1-34c0-20.1-16.2-36.3-36.3-36.3s-36.3,16.2-36.3,36.3
		c0,15.8,10.3,29.2,24.5,34.3v47.4c-11.4,2-22.1,6.3-31.2,13l-33.6-33.6c6.3-13.4,3.9-30-7.1-41.1c-14.2-14.2-37.1-14.2-51.3,0
		c-14.2,14.2-14.2,37.1,0,51.3c11.1,11.1,28,13.4,41.5,7.1L-311,240c-6.7,9.1-11.1,19.7-13,31.2h-49c-5.1-13.8-18.6-24.1-34-24.1
		c-20.1,0-36.3,16.2-36.3,36.3C-443.2,302.4-427.1,318.6-407.3,318.6z M-352.4,401.1c-5.1,5.1-13.4,5.1-18.6,0
		c-5.1-5.1-5.1-13.4,0-18.6c5.1-5.1,13.4-5.1,18.6,0C-347.3,387.7-347.3,396-352.4,401.1z M-151.9,382.5c5.1-5.1,13.4-5.1,18.6,0
		c5.1,5.1,5.1,13.4,0,18.6c-5.1,5.1-13.4,5.1-18.6,0C-157,396-157,387.7-151.9,382.5z M-97,269.2c7.1,0,13,5.9,13,13s-5.9,13-13,13
		s-13-5.9-13-13C-110.4,275.2-104.5,269.2-97,269.2z M-151.9,163.4c5.1-5.1,13.4-5.1,18.6,0c5.1,5.1,5.1,13.4,0,18.6
		c-5.1,5.1-13.4,5.1-18.6,0C-157,176.9-157,168.6-151.9,163.4z M-352.4,182c-5.1,5.1-13.4,5.1-18.6,0c-5.1-5.1-5.1-13.4,0-18.6
		c5.1-5.1,13.4-5.1,18.6,0C-347.3,168.6-347.3,176.9-352.4,182z M-239.1,437.4c0,7.1-5.9,13-13,13c-7.1,0-13-5.9-13-13
		c0-7.1,5.9-13,13-13C-245.1,424.4-239.1,429.9-239.1,437.4z M-265.2,127.1c0-7.1,5.9-13,13-13c7.1,0,13,5.9,13,13
		c0,7.1-5.9,13-13,13C-259.3,140.1-265.2,134.6-265.2,127.1z M-252.2,235.7c25.7,0,46.6,20.9,46.6,46.6c0,25.7-20.9,46.6-46.6,46.6
		s-46.6-20.9-46.6-46.6C-298.8,256.6-277.8,235.7-252.2,235.7z M-407.3,269.2c7.1,0,13,5.9,13,13s-5.9,13-13,13s-13-5.9-13-13
		S-414.4,269.2-407.3,269.2z M-273.1,282.3c0-11.4,9.5-20.9,20.9-20.9c11.4,0,20.9,9.5,20.9,20.9s-9.5,20.9-20.9,20.9
		C-263.6,303.2-273.1,293.7-273.1,282.3z"/>
</g>
<path fill="#D01326" stroke="#D01326" stroke-width="8.5039" stroke-miterlimit="10" d="M361.4,264.1c14.3,12.8,32.6,21.1,52.9,22.6
	v133c-22.3-46.9-70.2-79.5-125.5-79.5c-3.7,0-6.7,3-6.7,6.7c0,76.6,62.3,138.9,138.9,138.9c0,0,0.1,0,0.1,0c0.2,0,0.4,0,0.6-0.1
	c0.1,0,0.2,0.1,0.3,0.1c0.2,0,0.3-0.1,0.5-0.1c75.8-0.9,137.2-62.8,137.2-138.9c0-3.7-3-6.7-6.7-6.7c-55.1,0-102.9,32.3-125.3,78.9
	V286.7c46.1-3.5,82.5-42,82.5-89v-81.4c0-0.2,0-0.4,0-0.6c0-0.6-0.2-1.2-0.3-1.7c-0.1-0.2-0.1-0.4-0.2-0.6c-0.3-0.7-0.7-1.3-1.2-1.8
	c-0.1-0.1-0.1-0.2-0.1-0.2c-0.1-0.1-0.1-0.1-0.2-0.1c-0.6-0.5-1.2-1-2-1.3c-0.1,0-0.2,0-0.2-0.1c-0.7-0.3-1.5-0.4-2.3-0.5
	c0,0,0,0,0,0c0,0,0,0,0,0c-2,0-3.7,0.9-4.9,2.2l-0.6,0.6c-0.8,0.3-1.6,0.8-2.3,1.5l-34.1,34.6l-37-37c-2.5-2.5-7-2.5-9.5,0l-36,36
	l-36-36c0,0-0.1-0.1-0.2-0.1c-0.6-0.6-1.3-1-2-1.3c-0.1,0-0.1,0-0.2-0.1c-0.7-0.3-1.5-0.5-2.4-0.5c0,0,0,0,0,0s0,0,0,0
	c-3.7,0-6.7,3-6.7,6.7v81.5c0,24.4,9.8,46.5,25.7,62.6L361.4,264.1z M420.9,273.6c-17.8,0-34.2-6.2-47.2-16.6l87.3-88.8l35.8-35.8
	v65.3C496.9,239.6,462.8,273.6,420.9,273.6z M419.9,125.7l32.3,32.3l-1,1L421,189.3l-32.4-32.4L419.9,125.7z M345,132.3l66.8,66.8
	L364,247.7c-11.8-13.4-19-30.9-19-50V132.3z M295.7,353.9c59.7,3.3,108.3,48.4,117.1,106.4l-53.9-53.9c-2.6-2.6-6.9-2.6-9.5,0
	c-2.6,2.6-2.6,6.9,0,9.5l55.5,55.5C345.6,463.7,299,414.5,295.7,353.9z M439.7,470.9l53.9-53.9c2.6-2.6,2.6-6.9,0-9.5
	c-2.6-2.6-6.9-2.6-9.5,0L428.7,463c7.6-59.4,56.9-105.9,117.5-109.2C542.9,413.5,497.8,462.1,439.7,470.9z"/>
</svg>
