<?xml version="1.0" encoding="utf-8"?>
<!-- Generator: Adobe Illustrator 18.0.0, SVG Export Plug-In . SVG Version: 6.00 Build 0)  -->
<!DOCTYPE svg PUBLIC "-//W3C//DTD SVG 1.1//EN" "http://www.w3.org/Graphics/SVG/1.1/DTD/svg11.dtd">
<svg version="1.1" id="Calque_1" xmlns="http://www.w3.org/2000/svg" xmlns:xlink="http://www.w3.org/1999/xlink" x="0px" y="0px"
	 viewBox="0 0 841.9 595.3" enable-background="new 0 0 841.9 595.3" xml:space="preserve">
<path d="M420.9,82.8c-79.6,0-154.5,31-210.8,87.3c-4.7,4.6-4.7,12.2,0,16.8l41.7,41.7l41.7,41.7l41.7,41.7l36.2,36.2
	c-6.2,9.4-9.9,20.7-9.9,32.8c0,32.8,26.7,59.5,59.5,59.5s59.5-26.7,59.5-59.5c0-12.1-3.7-23.4-9.9-32.8l36.2-36.2l41.7-41.7
	l41.7-41.7l41.7-41.7c4.7-4.6,4.7-12.2,0-16.8C575.4,113.9,500.6,82.8,420.9,82.8z M581.5,203.6c-44.1-40-100.6-61.9-160.5-61.9
	s-116.5,21.9-160.5,61.9l-24.9-24.9c50.7-46.6,116.1-72.1,185.4-72.1s134.7,25.5,185.4,72.1L581.5,203.6z M564.6,220.5l-24.9,24.9
	c-32.9-28.9-74.6-44.7-118.8-44.7s-85.9,15.8-118.8,44.7l-24.9-24.9c39.6-35.5,90.1-54.9,143.7-54.9S525.1,185,564.6,220.5z
	 M456.7,381c0,19.7-16,35.7-35.7,35.7s-35.7-16-35.7-35.7c0-19.7,16-35.7,35.7-35.7S456.7,361.3,456.7,381z M420.9,318.6
	c-12.6,0-24.7,3.7-34.9,10.7l-25.1-25.1c17.1-13.4,38-20.7,60-20.7c22,0,43,7.3,60,20.7l-25.1,25.1
	C445.6,322.3,433.6,318.6,420.9,318.6z M420.9,259.6c-28.4,0-55.3,9.7-77,27.5L319,262.2c28.3-24.4,64.1-37.7,101.9-37.7
	s73.6,13.3,101.9,37.7l-24.9,24.9C476.3,269.3,449.4,259.6,420.9,259.6z"/>
</svg>
